<svg width="42" height="42" viewBox="0 0 42 42" fill="none" xmlns="http://www.w3.org/2000/svg">
        <path d="M29.75 24.5C30.2141 24.5 30.6593 24.3156 30.9874 23.9874C31.3156 23.6592 31.5 23.2141 31.5 22.75C31.5 22.2859 31.3156 21.8408 30.9874 21.5126C30.6593 21.1844 30.2141 21 29.75 21C29.2859 21 28.8407 21.1844 28.5126 21.5126C28.1844 21.8408 28 22.2859 28 22.75C28 23.2141 28.1844 23.6592 28.5126 23.9874C28.8407 24.3156 29.2859 24.5 29.75 24.5ZM29.75 31.5C30.2141 31.5 30.6593 31.3156 30.9874 30.9874C31.3156 30.6592 31.5 30.2141 31.5 29.75C31.5 29.2859 31.3156 28.8408 30.9874 28.5126C30.6593 28.1844 30.2141 28 29.75 28C29.2859 28 28.8407 28.1844 28.5126 28.5126C28.1844 28.8408 28 29.2859 28 29.75C28 30.2141 28.1844 30.6592 28.5126 30.9874C28.8407 31.3156 29.2859 31.5 29.75 31.5ZM22.75 22.75C22.75 23.2141 22.5656 23.6592 22.2374 23.9874C21.9092 24.3156 21.4641 24.5 21 24.5C20.5359 24.5 20.0908 24.3156 19.7626 23.9874C19.4344 23.6592 19.25 23.2141 19.25 22.75C19.25 22.2859 19.4344 21.8408 19.7626 21.5126C20.0908 21.1844 20.5359 21 21 21C21.4641 21 21.9092 21.1844 22.2374 21.5126C22.5656 21.8408 22.75 22.2859 22.75 22.75ZM22.75 29.75C22.75 30.2141 22.5656 30.6592 22.2374 30.9874C21.9092 31.3156 21.4641 31.5 21 31.5C20.5359 31.5 20.0908 31.3156 19.7626 30.9874C19.4344 30.6592 19.25 30.2141 19.25 29.75C19.25 29.2859 19.4344 28.8408 19.7626 28.5126C20.0908 28.1844 20.5359 28 21 28C21.4641 28 21.9092 28.1844 22.2374 28.5126C22.5656 28.8408 22.75 29.2859 22.75 29.75ZM12.25 24.5C12.7141 24.5 13.1592 24.3156 13.4874 23.9874C13.8156 23.6592 14 23.2141 14 22.75C14 22.2859 13.8156 21.8408 13.4874 21.5126C13.1592 21.1844 12.7141 21 12.25 21C11.7859 21 11.3408 21.1844 11.0126 21.5126C10.6844 21.8408 10.5 22.2859 10.5 22.75C10.5 23.2141 10.6844 23.6592 11.0126 23.9874C11.3408 24.3156 11.7859 24.5 12.25 24.5ZM12.25 31.5C12.7141 31.5 13.1592 31.3156 13.4874 30.9874C13.8156 30.6592 14 30.2141 14 29.75C14 29.2859 13.8156 28.8408 13.4874 28.5126C13.1592 28.1844 12.7141 28 12.25 28C11.7859 28 11.3408 28.1844 11.0126 28.5126C10.6844 28.8408 10.5 29.2859 10.5 29.75C10.5 30.2141 10.6844 30.6592 11.0126 30.9874C11.3408 31.3156 11.7859 31.5 12.25 31.5Z" fill="#E6E8F6"/>
        <path fill-rule="evenodd" clip-rule="evenodd" d="M12.25 3.0625C12.5981 3.0625 12.9319 3.20078 13.178 3.44692C13.4242 3.69306 13.5625 4.0269 13.5625 4.375V5.71025C14.721 5.6875 15.9967 5.6875 17.4002 5.6875H24.598C26.0032 5.6875 27.279 5.6875 28.4375 5.71025V4.375C28.4375 4.0269 28.5757 3.69306 28.8219 3.44692C29.068 3.20078 29.4019 3.0625 29.75 3.0625C30.0981 3.0625 30.4319 3.20078 30.678 3.44692C30.9242 3.69306 31.0625 4.0269 31.0625 4.375V5.82225C31.5175 5.85725 31.9485 5.90158 32.3557 5.95525C34.4067 6.23175 36.0675 6.81275 37.3782 8.12175C38.6872 9.4325 39.2682 11.0933 39.5447 13.1442C39.8125 15.1392 39.8125 17.6855 39.8125 20.902V24.598C39.8125 27.8145 39.8125 30.3625 39.5447 32.3558C39.2682 34.4067 38.6872 36.0675 37.3782 37.3783C36.0675 38.6872 34.4067 39.2682 32.3557 39.5448C30.3607 39.8125 27.8145 39.8125 24.598 39.8125H17.4037C14.1872 39.8125 11.6392 39.8125 9.64596 39.5448C7.59496 39.2682 5.93421 38.6872 4.62346 37.3783C3.31446 36.0675 2.73346 34.4067 2.45696 32.3558C2.18921 30.3608 2.18921 27.8145 2.18921 24.598V20.902C2.18921 17.6855 2.18921 15.1375 2.45696 13.1442C2.73346 11.0933 3.31446 9.4325 4.62346 8.12175C5.93421 6.81275 7.59496 6.23175 9.64596 5.95525C10.0543 5.90158 10.4854 5.85725 10.9392 5.82225V4.375C10.9392 4.02721 11.0773 3.69363 11.323 3.44754C11.5688 3.20145 11.9022 3.06296 12.25 3.0625ZM9.99246 8.5575C8.23371 8.79375 7.21871 9.23825 6.47846 9.9785C5.73821 10.7188 5.29371 11.7338 5.05746 13.4925C5.01779 13.79 4.98396 14.1044 4.95596 14.4357H37.044C37.016 14.1044 36.9821 13.7894 36.9425 13.4908C36.7062 11.732 36.2617 10.717 35.5215 9.97675C34.7812 9.2365 33.7662 8.792 32.0057 8.55575C30.2085 8.31425 27.8372 8.31075 24.5 8.31075H17.5C14.1627 8.31075 11.7932 8.316 9.99246 8.5575ZM4.81246 21C4.81246 19.5055 4.81246 18.2052 4.83521 17.0625H37.1647C37.1875 18.2052 37.1875 19.5055 37.1875 21V24.5C37.1875 27.8372 37.184 30.2085 36.9425 32.0075C36.7062 33.7663 36.2617 34.7812 35.5215 35.5215C34.7812 36.2617 33.7662 36.7062 32.0057 36.9425C30.2085 37.184 27.8372 37.1875 24.5 37.1875H17.5C14.1627 37.1875 11.7932 37.184 9.99246 36.9425C8.23371 36.7062 7.21871 36.2617 6.47846 35.5215C5.73821 34.7812 5.29371 33.7662 5.05746 32.0057C4.81596 30.2085 4.81246 27.8372 4.81246 24.5V21Z" fill="#E6E8F6"/>
</svg>