<svg width="25" height="25" viewBox="0 0 25 25" fill="none" xmlns="http://www.w3.org/2000/svg">
<circle cx="12.5" cy="12.5" r="11.5" fill="#008955" stroke="#007448" stroke-width="2"/>
<path d="M11.0938 12.125C11.0938 11.752 11.2419 11.3944 11.5056 11.1306C11.7694 10.8669 12.127 10.7188 12.5 10.7188C12.873 10.7188 13.2306 10.8669 13.4944 11.1306C13.7581 11.3944 13.9062 11.752 13.9062 12.125C13.9062 12.498 13.7581 12.8556 13.4944 13.1194C13.2306 13.3831 12.873 13.5312 12.5 13.5312C12.127 13.5312 11.7694 13.3831 11.5056 13.1194C11.2419 12.8556 11.0938 12.498 11.0938 12.125Z" fill="#D9D9D9"/>
<path fill-rule="evenodd" clip-rule="evenodd" d="M9.67125 8.77625C9.67109 8.51832 9.72177 8.26289 9.8204 8.02456C9.91903 7.78623 10.0637 7.56969 10.2461 7.3873C10.4284 7.20492 10.645 7.06028 10.8833 6.96165C11.1216 6.86302 11.3771 6.81234 11.635 6.8125H13.365C13.6229 6.81234 13.8784 6.86302 14.1167 6.96165C14.355 7.06028 14.5716 7.20492 14.754 7.3873C14.9363 7.56969 15.081 7.78623 15.1796 8.02456C15.2782 8.26289 15.3289 8.51832 15.3288 8.77625C15.3289 8.78071 15.3306 8.78499 15.3335 8.78831C15.3365 8.79163 15.3406 8.79378 15.345 8.79438L16.7388 8.90688C17.3631 8.95813 17.8763 9.41938 17.9931 10.035C18.2899 11.6053 18.3119 13.2153 18.0581 14.7931L17.9975 15.1706C17.9419 15.5165 17.7719 15.8337 17.5147 16.0716C17.2575 16.3094 16.9279 16.4541 16.5788 16.4825L15.3644 16.5806C13.4579 16.7355 11.5421 16.7355 9.63563 16.5806L8.42125 16.4825C8.072 16.4541 7.74239 16.3093 7.48518 16.0713C7.22796 15.8334 7.058 15.516 7.0025 15.17L6.94188 14.7931C6.6875 13.215 6.71 11.6056 7.00688 10.035C7.06364 9.73564 7.21712 9.46319 7.44373 9.2595C7.67034 9.05581 7.95755 8.93214 8.26125 8.9075L9.655 8.79438C9.65943 8.79378 9.66349 8.79163 9.66647 8.78831C9.66945 8.78499 9.67114 8.78071 9.67125 8.77625ZM12.5 9.78125C11.8784 9.78125 11.2823 10.0282 10.8427 10.4677C10.4032 10.9073 10.1563 11.5034 10.1563 12.125C10.1563 12.7466 10.4032 13.3427 10.8427 13.7823C11.2823 14.2218 11.8784 14.4688 12.5 14.4688C13.1216 14.4688 13.7177 14.2218 14.1573 13.7823C14.5968 13.3427 14.8438 12.7466 14.8438 12.125C14.8438 11.5034 14.5968 10.9073 14.1573 10.4677C13.7177 10.0282 13.1216 9.78125 12.5 9.78125Z" fill="#D9D9D9"/>
</svg>
