<svg width="30" height="30" viewBox="0 0 43 41" fill="none" xmlns="http://www.w3.org/2000/svg">
<ellipse cx="21.5" cy="20.5" rx="21.5" ry="20.5" fill="#008955"/>
<path d="M19.9337 26.2706H22.0543V24.2317H19.9337V26.2706ZM20.994 14.037C19.8691 14.037 18.7903 14.4666 17.9949 15.2314C17.1995 15.9961 16.7527 17.0333 16.7527 18.1149H18.8733C18.8733 17.5741 19.0968 17.0555 19.4945 16.6731C19.8922 16.2907 20.4316 16.0759 20.994 16.0759C21.5564 16.0759 22.0958 16.2907 22.4935 16.6731C22.8912 17.0555 23.1146 17.5741 23.1146 18.1149C23.1146 20.1538 19.9337 19.8989 19.9337 23.2122H22.0543C22.0543 20.9184 25.2353 20.6635 25.2353 18.1149C25.2353 17.0333 24.7884 15.9961 23.993 15.2314C23.1976 14.4666 22.1189 14.037 20.994 14.037ZM13.5717 10.9786H28.4163C28.9787 10.9786 29.5181 11.1934 29.9158 11.5758C30.3135 11.9581 30.5369 12.4768 30.5369 13.0175V27.2901C30.5369 27.8308 30.3135 28.3495 29.9158 28.7318C29.5181 29.1142 28.9787 29.329 28.4163 29.329H13.5717C13.0093 29.329 12.4699 29.1142 12.0722 28.7318C11.6745 28.3495 11.451 27.8308 11.451 27.2901V13.0175C11.451 12.4768 11.6745 11.9581 12.0722 11.5758C12.4699 11.1934 13.0093 10.9786 13.5717 10.9786Z" fill="white"/>
</svg>

