<svg width="50" height="50" viewBox="0 0 41 41" fill="none" xmlns="http://www.w3.org/2000/svg">
<path d="M23.9166 20.5V33.9617C23.985 34.4742 23.8141 35.0208 23.4212 35.3796C23.2632 35.5379 23.0755 35.6636 22.8688 35.7493C22.6621 35.835 22.4406 35.8792 22.2169 35.8792C21.9931 35.8792 21.7716 35.835 21.5649 35.7493C21.3583 35.6636 21.1705 35.5379 21.0125 35.3796L17.5787 31.9458C17.3925 31.7636 17.2509 31.5408 17.165 31.2949C17.079 31.0489 17.0511 30.7865 17.0833 30.5279V20.5H17.0321L7.19206 7.8925C6.91464 7.53636 6.78947 7.0849 6.84388 6.63676C6.8983 6.18861 7.12789 5.78023 7.48248 5.50083C7.80706 5.26167 8.16581 5.125 8.54165 5.125H32.4583C32.8341 5.125 33.1929 5.26167 33.5175 5.50083C33.8721 5.78023 34.1017 6.18861 34.1561 6.63676C34.2105 7.0849 34.0853 7.53636 33.8079 7.8925L23.9679 20.5H23.9166Z" fill="#007448"/>
<path d="M29.3333 31.6666H26.6666L30.6666 35.6666V22.3333H29.3333V31.6666ZM33.3333 24.3333V35.6666H34.6666V26.3333H37.3333L33.3333 22.3333V24.3333Z" fill="#007448"/>
</svg>
