<svg width="32" height="36" viewBox="0 0 32 36" fill="none" xmlns="http://www.w3.org/2000/svg">
<path d="M14.838 35.5C13.8371 35.5 12.9806 35.1576 12.2684 34.4728C11.5562 33.7879 11.1996 32.9637 11.1983 32H18.4777C18.4777 32.9625 18.1216 33.7868 17.4095 34.4728C16.6973 35.1588 15.8402 35.5012 14.838 35.5ZM2.09914 30.25C1.58352 30.25 1.15161 30.082 0.803417 29.746C0.455221 29.41 0.280516 28.9947 0.279303 28.5C0.27809 28.0053 0.452795 27.59 0.803417 27.254C1.15404 26.918 1.58595 26.75 2.09914 26.75H3.91898V14.5C3.91898 12.0792 4.67725 9.92842 6.19378 8.04775C7.71032 6.16709 9.68181 4.9345 12.1083 4.35V3.125C12.1083 2.39584 12.374 1.77634 12.9054 1.2665C13.4367 0.756671 14.081 0.501171 14.838 0.500004C15.5951 0.498837 16.2399 0.754337 16.7725 1.2665C17.3051 1.77867 17.5702 2.39817 17.5678 3.125V3.69375C17.2645 4.27709 17.037 4.88959 16.8853 5.53125C16.7337 6.17292 16.6579 6.82917 16.6579 7.5C16.6579 9.92084 17.5453 11.9847 19.3203 13.6915C21.0952 15.3983 23.2408 16.2512 25.7571 16.25V26.75H27.5769C28.0925 26.75 28.525 26.918 28.8745 27.254C29.2239 27.59 29.398 28.0053 29.3968 28.5C29.3955 28.9947 29.2208 29.4106 28.8726 29.7478C28.5244 30.0849 28.0925 30.2523 27.5769 30.25H2.09914ZM25.7571 12.75C24.2405 12.75 22.9515 12.2396 21.8899 11.2188C20.8283 10.1979 20.2975 8.95834 20.2975 7.5C20.2975 6.04167 20.8283 4.80209 21.8899 3.78125C22.9515 2.76042 24.2405 2.25 25.7571 2.25C27.2736 2.25 28.5627 2.76042 29.6242 3.78125C30.6858 4.80209 31.2166 6.04167 31.2166 7.5C31.2166 8.95834 30.6858 10.1979 29.6242 11.2188C28.5627 12.2396 27.2736 12.75 25.7571 12.75Z" fill="#E6E8F6"/>
</svg>
