<svg width="12" height="14" viewBox="0 0 12 14" fill="none" xmlns="http://www.w3.org/2000/svg">
<path d="M2.33333 3.99998C2.33333 3.02752 2.71964 2.09489 3.40727 1.40725C4.09491 0.719621 5.02754 0.333313 6 0.333313C6.97246 0.333313 7.90509 0.719621 8.59273 1.40725C9.28036 2.09489 9.66667 3.02752 9.66667 3.99998C9.66667 4.97244 9.28036 5.90507 8.59273 6.5927C7.90509 7.28034 6.97246 7.66665 6 7.66665C5.02754 7.66665 4.09491 7.28034 3.40727 6.5927C2.71964 5.90507 2.33333 4.97244 2.33333 3.99998ZM0 11.6666C0 10.7826 0.351189 9.93474 0.976311 9.30962C1.60143 8.6845 2.44928 8.33331 3.33333 8.33331H8.66667C9.55072 8.33331 10.3986 8.6845 11.0237 9.30962C11.6488 9.93474 12 10.7826 12 11.6666V13.6666H0V11.6666Z" fill="#007448"/>
</svg>
