<svg width="30" height="26" viewBox="0 0 30 26" fill="none" xmlns="http://www.w3.org/2000/svg">
<rect width="28.4243" height="26" transform="translate(0.804688)" fill="white"/>
<path fill-rule="evenodd" clip-rule="evenodd" d="M13.2403 2.16669C11.635 2.16681 10.053 2.51808 8.62637 3.19119C7.1997 3.8643 5.96969 4.83972 5.03896 6.03609C4.10824 7.23245 3.50378 8.61506 3.27603 10.0686C3.04828 11.5221 3.20383 13.0043 3.72972 14.3917C4.2556 15.779 5.13657 17.0312 6.29911 18.0437C7.46165 19.0563 8.87206 19.7999 10.4127 20.2124C11.9533 20.625 13.5794 20.6946 15.1554 20.4153C16.7314 20.1361 18.2115 19.5162 19.4723 18.6074L23.7975 22.5637C24.0209 22.761 24.3201 22.8702 24.6306 22.8677C24.9411 22.8653 25.2382 22.7513 25.4578 22.5505C25.6774 22.3496 25.8019 22.0779 25.8046 21.7939C25.8073 21.5098 25.6879 21.2362 25.4722 21.0319L21.147 17.0755C22.3171 15.7177 23.0457 14.086 23.2493 12.3671C23.4529 10.6482 23.1234 8.91154 22.2984 7.35595C21.4734 5.80037 20.1863 4.48866 18.5844 3.57094C16.9825 2.65322 15.1305 2.16657 13.2403 2.16669ZM5.54203 11.375C5.54203 9.50745 6.35309 7.71638 7.7968 6.39581C9.2405 5.07524 11.1986 4.33335 13.2403 4.33335C15.282 4.33335 17.2401 5.07524 18.6838 6.39581C20.1275 7.71638 20.9385 9.50745 20.9385 11.375C20.9385 13.2426 20.1275 15.0337 18.6838 16.3542C17.2401 17.6748 15.282 18.4167 13.2403 18.4167C11.1986 18.4167 9.2405 17.6748 7.7968 16.3542C6.35309 15.0337 5.54203 13.2426 5.54203 11.375Z" fill="#B3B3B3"/>
</svg>
