<svg width="39" height="33" viewBox="0 0 39 33" fill="none" xmlns="http://www.w3.org/2000/svg">
<path d="M19.2604 1.26311e-05C15.5886 -0.00419414 11.9922 1.04247 8.89609 3.0164C5.79997 4.99032 3.3334 7.80905 1.78769 11.1397C0.24198 14.4703 -0.318302 18.1737 0.173013 21.8126C0.664329 25.4514 2.18672 28.8736 4.56039 31.675L4.91039 32.0833H33.6104L33.9604 31.675C36.334 28.8736 37.8564 25.4514 38.3478 21.8126C38.8391 18.1737 38.2788 14.4703 36.7331 11.1397C35.1874 7.80905 32.7208 4.99032 29.6247 3.0164C26.5286 1.04247 22.9322 -0.00419414 19.2604 1.26311e-05ZM29.2937 11.06L22.3871 17.8383C22.7401 18.5846 22.8179 19.4317 22.6068 20.2298C22.3957 21.028 21.9093 21.7258 21.2335 22.2C20.5577 22.6742 19.736 22.8942 18.9137 22.8212C18.0913 22.7482 17.3213 22.3869 16.7395 21.801C16.1578 21.2152 15.802 20.4426 15.7348 19.6198C15.6676 18.7969 15.8934 17.9768 16.3724 17.3044C16.8513 16.632 17.5526 16.1505 18.3522 15.945C19.1518 15.7396 19.9983 15.8234 20.7421 16.1817L27.6371 9.40335L29.2937 11.06ZM2.46039 18.2583H6.42705V20.5917H2.41372C2.41372 20.1367 2.35539 19.6933 2.35539 19.2267C2.35539 18.76 2.37872 18.585 2.40205 18.2583H2.46039ZM8.15372 6.59168L11.0237 9.46168L9.30872 11.0717L6.42705 8.21335C6.9454 7.62435 7.50277 7.07088 8.09539 6.55668L8.15372 6.59168ZM20.4271 6.46335H18.0937V2.38001H19.2604C19.6921 2.38001 20.0771 2.38001 20.4271 2.43835V6.46335ZM36.1654 19.2383C36.1654 19.6933 36.1654 20.16 36.107 20.6033H32.0004V18.27H36.1187C36.1421 18.585 36.1654 18.9117 36.1654 19.2383Z" fill="#007448"/>
</svg>
